<?xml version="1.0" standalone="no"?>
<!DOCTYPE svg PUBLIC "-//W3C//DTD SVG 20010904//EN"
 "http://www.w3.org/TR/2001/REC-SVG-20010904/DTD/svg10.dtd">
<svg version="1.0" xmlns="http://www.w3.org/2000/svg"
 width="260.000000pt" height="260.000000pt" viewBox="0 0 260.000000 260.000000"
 preserveAspectRatio="xMidYMid meet">
<metadata>
Created by potrace 1.11, written by Peter Selinger 2001-2013
</metadata>
<g transform="translate(0.000000,260.000000) scale(0.100000,-0.100000)"
fill="#000000" stroke="none">
<path d="M0 1300 l0 -1300 1300 0 1300 0 0 1300 0 1300 -1300 0 -1300 0 0
-1300z m965 535 c33 -9 93 -31 134 -51 138 -64 201 -119 438 -381 93 -103 143
-133 219 -133 60 0 96 21 154 87 l42 50 207 -119 c113 -66 210 -124 215 -128
21 -20 -119 -197 -215 -274 -124 -98 -227 -136 -374 -136 -106 0 -182 17 -282
65 -141 66 -229 142 -425 365 -100 114 -142 143 -216 148 -74 5 -105 -10 -168
-81 l-47 -54 -206 120 c-113 65 -210 123 -215 127 -14 13 70 135 144 211 131
133 276 199 440 199 54 0 122 -7 155 -15z"/>
</g>
</svg>
